<svg xmlns="http://www.w3.org/2000/svg" width="512" height="512" viewBox="0 0 512 512">
  <!-- App ikona 512: oficiální symbol.svg (karta se srdcem) vycentrovaný
       na blush pozadí. Odvozeno 1:1 ze symbol.svg, žádná vlastní kresba.
       Symbol 120×168 -> scale 2.4 -> 288×403, vycentrováno. -->
  <rect width="512" height="512" rx="96" fill="#F7E6EC"/>
  <g transform="translate(112, 55) scale(2.4)">
    <rect fill="#2B1340" x="2" y="2" width="116" height="164" rx="14"/>
    <rect fill="none" stroke="#D4AF37" x="10" y="10" width="100" height="148" rx="9" stroke-width="2.5"/>
    <path fill="#D4AF37" d="M60 24 l2.8 6.4 6.4 2.8 -6.4 2.8 -2.8 6.4 -2.8 -6.4 -6.4 -2.8 6.4 -2.8 z"/>
    <path fill="#E84D9A" stroke="#F6BBD9" stroke-width="2.5" stroke-linecap="round" stroke-linejoin="round"
          d="M60 116 C 38 98, 30 84, 30 72 C 30 60, 39 52, 49 52 C 55 52, 59 55, 60 60 C 61 55, 65 52, 71 52 C 81 52, 90 60, 90 72 C 90 84, 82 98, 60 116 Z"/>
    <path fill="#D4AF37" d="M60 130 l2.2 5 5 2.2 -5 2.2 -2.2 5 -2.2 -5 -5 -2.2 5 -2.2 z"/>
  </g>
</svg>
